<svg viewBox="0 0 512 512" xml:space="preserve" xmlns="http://www.w3.org/2000/svg" enable-background="new 0 0 512 512"><path d="M477.265 236.206c-.651-4.181-1.302-6.598-1.302-6.598s-1.673 1.859-4.368 5.483c-.837-9.943-2.602-19.702-5.39-29.366-3.438-11.987-7.898-23.604-13.475-34.755-3.531-7.434-7.62-14.497-12.358-21.188a148.055 148.055 0 0 0-5.205-7.342c-8.178-13.381-17.657-21.652-28.53-37.172-7.062-11.895-11.985-24.997-14.311-38.658-2.973 8.271-5.297 16.728-6.877 25.369-11.243-11.337-20.907-19.328-26.855-24.812-28.807-27.135-25.463-41.168-25.463-41.168s-54.178 60.498-30.759 123.503c8.085 21.373 22.117 40.053 40.331 53.806 22.674 18.772 47.207 33.454 60.125 71.184-10.408-19.793-26.112-36.429-45.35-47.857 5.762 13.66 8.734 28.436 8.642 43.212 0 56.688-46.092 102.687-102.78 102.593-7.713 0-15.332-.835-22.767-2.602a95.82 95.82 0 0 1-25.461-8.644c-11.989-7.247-22.303-16.82-30.48-28.156l-.187-.279 1.859.65a89.262 89.262 0 0 0 13.01 3.438 80.582 80.582 0 0 0 51.668-6.133c16.263-9.013 26.021-15.703 34.013-13.011h.187c7.805 2.511 13.938-5.111 8.362-13.01a42.525 42.525 0 0 0-41.075-15.797c-16.262 2.322-31.13 13.939-52.412 2.695a56.675 56.675 0 0 1-3.997-2.324c-1.486-.835 4.555 1.209 3.161.279-4.646-2.323-9.107-5.019-13.382-7.992-.279-.279 3.253 1.023 2.881.744-5.482-3.717-10.222-8.549-13.94-14.125-3.81-6.877-4.181-15.241-.928-22.396 1.952-3.531 5.019-6.411 8.641-8.086 2.79 1.395 4.462 2.418 4.462 2.418s-1.209-2.323-1.952-3.532c.279-.094.464 0 .743-.186 2.417 1.022 7.714 3.718 10.593 5.39 1.952 1.022 3.533 2.51 4.834 4.367 0 0 .928-.464.278-2.509-1.022-2.51-2.695-4.646-5.02-6.133h.187c2.137 1.115 4.182 2.416 6.134 3.811a29.737 29.737 0 0 0 2.415-13.011c.188-2.415-.185-4.925-1.022-7.248-.743-1.488.466-2.045 1.765-.465-.185-1.208-.649-2.322-1.115-3.438v-.093s.744-1.022 1.115-1.394a16.95 16.95 0 0 1 3.161-2.509 136.404 136.404 0 0 1 21.096-10.78c5.947-2.603 10.871-4.555 11.894-5.204 1.487-.93 2.882-2.045 4.183-3.254 4.925-4.181 8.364-10.035 9.479-16.447.093-.837.186-1.672.28-2.602v-1.395c-.838-3.252-6.413-5.668-35.686-8.456-10.314-1.674-18.586-9.387-20.91-19.608v-.093a74.386 74.386 0 0 1 28.623-35.591c.743-.651-2.974.185-2.23-.465 2.51-1.209 5.018-2.323 7.621-3.253 1.3-.559-5.577-3.159-11.71-2.51-3.717.187-7.434 1.116-10.872 2.603 1.488-1.208 5.762-2.88 4.739-2.88-7.806 1.486-15.333 4.366-22.211 8.362 0-.744.095-1.393.466-2.044-5.483 2.323-10.223 6.041-13.94 10.688.093-.837.186-1.674.186-2.511-2.509 1.859-4.833 3.996-6.784 6.413l-.093.093c-16.169-6.227-33.733-7.714-50.739-4.367l-.187-.093h.187c-3.532-2.883-6.598-6.228-9.014-10.13l-.186.094-.371-.187c-1.116-1.672-2.23-3.531-3.439-5.575-.836-1.487-1.671-3.161-2.508-4.833 0-.093-.093-.186-.187-.186-.372 0-.556 1.579-.835 1.207v-.093c-2.975-7.712-4.368-15.984-4.09-24.347l-.186.093c-4.739 3.252-8.363 7.992-10.314 13.475-.837 1.951-1.487 3.067-2.044 4.183v-.465c.093-1.023.557-3.067.464-2.882-.093.187-.187.279-.279.372-1.394 1.58-2.695 3.438-3.624 5.39-.836 1.767-1.58 3.625-2.138 5.483-.092.278 0-.279 0-.93s.095-1.857 0-1.579l-.279.65a137.39 137.39 0 0 0-11.523 43.769c-.371 2.604-.556 5.204-.464 7.714v.186c-4.46 4.833-8.364 10.222-11.801 15.891-11.246 18.958-19.608 39.495-24.906 60.961a148.195 148.195 0 0 1 13.289-23.324 215.555 215.555 0 0 0-15.055 79.174c1.672-7.99 3.903-15.797 6.505-23.509-1.58 32.06 4.553 64.026 18.028 93.206a217.373 217.373 0 0 0 85.773 97.298c15.426 10.407 32.247 18.492 49.996 23.974 2.323.838 4.739 1.676 7.156 2.509-.744-.277-1.487-.648-2.23-.929 21.002 6.319 42.934 9.572 64.864 9.572 77.781 0 103.431-29.645 105.753-32.524 3.811-3.438 6.971-7.62 9.2-12.359a223.252 223.252 0 0 1 4.554-1.953l.929-.464 1.767-.835c11.708-5.485 22.768-12.453 32.805-20.537 15.147-10.874 25.926-26.671 30.572-44.7 2.787-6.599 2.881-13.94.372-20.63.836-1.301 1.58-2.603 2.509-3.996 16.728-26.855 26.205-57.522 27.507-89.117v-2.604c-.004-6.783-.561-13.473-1.768-20.072zm-277.86-90.698c-.371 1.022-.835 2.138-1.207 3.253a46.539 46.539 0 0 1 1.207-3.253z" fill="#3797d9" class="fill-f25800"></path></svg>