<svg viewBox="0 0 220 220" xml:space="preserve" xmlns="http://www.w3.org/2000/svg"><path d="M195.39 120.285c.403-3.371.61-6.805.61-10.285 0-47.496-38.504-86-86-86s-86 38.504-86 86c0 16 4.914 20.102 8 22 26 16 34-26 38-36s4-46 4-46 22-2.84 58 36 38 49.024 52 46c4.965-1.074 8.672-5.914 11.39-11.715z" fill="none"></path><path d="M110 0C49.347 0 0 49.348 0 110s49.347 110 110 110c60.652 0 110-49.348 110-110S170.652 0 110 0zm22 86C96 47.16 74 50 74 50s0 36-4 46-12 52-38 36c-3.086-1.898-8-6-8-22 0-47.496 38.504-86 86-86s86 38.504 86 86c0 3.48-.207 6.914-.61 10.285-2.718 5.801-6.425 10.64-11.39 11.715-14 3.024-16-7.16-52-46z" fill="#666666" class="fill-2f4556"></path></svg>